<?xml version="1.0" encoding="utf-8"?>
<!-- Generator: Adobe Illustrator 19.0.0, SVG Export Plug-In . SVG Version: 6.00 Build 0)  -->
<svg version="1.1" id="Layer_1" xmlns="http://www.w3.org/2000/svg" xmlns:xlink="http://www.w3.org/1999/xlink" x="0px" y="0px"
	 viewBox="0 0 85 85" style="enable-background:new 0 0 85 85;" xml:space="preserve">
<style type="text/css">
	.st0{fill:#CEB28D;}
	.st1{fill:#87634C;}
	.st2{fill:#5E4636;}
</style>
<polygon id="XMLID_2_" class="st0" points="13.8,69.3 9.1,64.8 8.7,59.1 7.7,53.1 4.4,48.3 3.1,43.2 2.3,38.9 7.1,32.6 8.1,24.2 
	9.7,18.5 12.9,15.5 19.5,12.9 25.1,7.4 28.2,3.7 35.4,2.7 41.6,4.2 48.2,3.7 53.5,2.7 58.4,4.7 63.4,8.7 62.6,13.7 59.8,17.5 
	58.4,21.2 60.2,24.7 62.2,26.5 61.3,30.6 63.8,33 66.4,35.4 69.2,37.2 72.4,39.7 78,40.1 82.1,40.1 83.1,43.2 83.1,46.6 78,51.9 
	77.3,60.6 77.3,66 72.2,69.3 64.5,71 61.3,76.2 57.7,79.7 51.8,81.2 42.3,78.9 34.6,81.2 27.8,79.7 23.8,74.5 21.6,71.7 18.3,70.6 
	16,69.9 "/>
<g id="XMLID_1_">
	<g id="XMLID_242_">
		<path id="XMLID_243_" class="st1" d="M23.7,52.4c8.5-3.7,18.2-8,21.4-12.1c5.5-7,8.6-20.7,10-28.3c0.4-2.3,1.5-4.7,3.2-7.2l0,0
			l-0.8-0.3c-1.7,2.5-2.8,5-3.3,7.4c-1.1,6-4.3,20.8-9.9,28c-3.1,3.9-12.7,8.2-21.1,11.9c-4.9,2.1-9.5,4.2-12.2,5.9
			c-0.8,0.5-1.6,1.1-2.4,1.8l0.1,1c1-0.8,1.9-1.5,2.8-2.1C14.2,56.5,18.8,54.5,23.7,52.4z M62.6,13.7l0.4-2.3
			c-1.3,2.1-2.3,4.2-3.2,6.1L62.6,13.7z M32.7,26.8c-0.2-0.7-1-1.1-2-1.1c-0.7,0-1.4,0.2-2.1,0.6c-2.6,1.6-2.8,2.4-3.3,4.2l-0.1,0.3
			c-0.1,0.4-0.1,0.7,0.1,0.9c0.1,0.1,0.3,0.3,0.7,0.3c1.3,0,4.1-1.8,5.6-2.9C33,28.1,32.8,27.1,32.7,26.8L32.7,26.8z M31.1,28.5
			L31.1,28.5c-2,1.5-4.3,2.8-5.1,2.8h-0.1c0,0,0-0.1,0-0.2l0.1-0.3c0.5-1.7,0.6-2.3,3-3.7c0.7-0.4,1.3-0.5,1.7-0.5
			c0.6,0,1.1,0.2,1.2,0.6C32.1,27.4,31.8,28,31.1,28.5z M51.9,73c3.4-0.9,6.9-1.8,9.6-4.4c4.4-4.1,8-15,9.6-23.4
			c0.3-1.5,0.7-3.4,1.3-5.5l-0.7-0.6c-0.6,2.3-1.1,4.3-1.4,5.9c-1.5,8.3-5,19-9.3,22.9c-2.6,2.4-6,3.3-9.3,4.2
			c-2.1,0.6-4.1,1.1-5.8,2c-2.2,1.1-4.8,3.2-7.8,6.1l1.8-0.5c2.4-2.2,4.6-3.8,6.4-4.8C47.9,74,49.8,73.5,51.9,73z M31.1,68.9
			c7-3.4,13.6-6.6,19.2-11.5c5.5-4.9,9.7-13.2,12.6-24.8c0-0.2,0.1-0.3,0.1-0.5l-0.7-0.7c-0.1,0.3-0.2,0.6-0.2,1
			c-2.9,11.4-7,19.6-12.4,24.4c-5.5,4.8-12,8-19,11.4l-1.9,0.9c-2.1,1-4.1,2.3-6.2,3.8l0.5,0.6c2-1.5,4-2.7,6-3.7L31.1,68.9z
			 M74.3,57.2c-1.2,4.4-2.3,8.3-3.1,10.3c-0.4,0.9-0.9,1.7-1.4,2.4l1.2-0.3c0.4-0.5,0.7-1.1,0.9-1.8c0.8-2.1,1.9-5.9,3.1-10.4
			c1.5-5.4,3.2-11.8,5.2-17.2h-0.9C77.5,45.6,75.7,51.8,74.3,57.2z M76.3,66.6l1-0.6l0,0l0-3.8c0,0.1,0,0.2-0.1,0.3
			C76.9,64.1,76.6,65.4,76.3,66.6z M75.8,40L75,39.9c-0.9,3.1-1.7,6.2-2.5,9.2c-1.7,6.3-3.3,12.2-4.5,15.2
			c-2.4,5.9-7.9,7.8-13.3,9.7c-1.3,0.5-2.7,0.9-3.9,1.4c-2.2,0.9-4.2,2.2-6.3,4l1,0.2c1.9-1.5,3.7-2.7,5.6-3.4
			c1.2-0.5,2.5-1,3.9-1.4c5.5-1.9,11.2-3.9,13.8-10.1c1.3-3.1,2.9-9.1,4.6-15.3C74.1,46.3,75,43.1,75.8,40z M45.2,54.7
			c8.9-6.6,11.6-14.2,14-20.9l0.4-1.1c0.6-1.7,1.2-3.5,1.8-5.3c0.1-0.4,0.3-0.8,0.4-1.3l-0.7-0.6c-0.2,0.5-0.4,1.1-0.5,1.6
			c-0.6,1.8-1.2,3.6-1.8,5.3l-0.4,1.1c-2.5,6.9-5,14.1-13.7,20.5C38,59,31,62.2,25.3,64.7c-2.1,1-4.1,1.8-5.8,2.7
			c-1,0.5-2.1,1.4-3.4,2.6l0.9,0.3c1.1-1,2-1.7,2.8-2.1c1.6-0.8,3.6-1.7,5.7-2.7C31.3,62.9,38.4,59.7,45.2,54.7z M62.3,49.1
			c1.6-4.1,2.9-8.9,4.1-13.6l-0.7-0.6c-1.2,4.9-2.5,9.7-4.2,14c-3.1,8.1-6.1,13-12.9,15.9c-7.2,3.1-11,4.7-18.7,9.6
			c-1.7,1.1-3,2-4.1,2.9l0.5,0.6c1.1-0.9,2.4-1.8,4.1-2.9c7.6-4.9,11.4-6.5,18.6-9.6C56.8,62.1,59.6,56.1,62.3,49.1z M10.9,32.8
			c2.6-5.4,6.5-12.2,12.9-16.4c3.3-2.2,6.6-2.8,9.8-3.5c3.2-0.6,6.5-1.2,9.8-3.4c2.4-1.6,4.6-3.8,6.7-6.1l-1.4,0.3
			c-1.8,2-3.7,3.8-5.7,5.1c-3.2,2.1-6.2,2.7-9.5,3.3c-3.3,0.6-6.6,1.3-10.1,3.6C16.7,20,12.8,26.9,10.1,32.4c-1,2.1-1.9,5.1-2.7,8.2
			c-0.8,2.9-1.6,5.8-2.7,8.3l0.6,0.8c1.2-2.6,2-5.8,2.9-8.9C9,37.7,9.8,34.8,10.9,32.8z M24.9,56.5c8.2-3.4,17.5-7.1,21.5-12.4
			c6.1-8,8.8-19.1,11.3-30.7c0.5-2.1,1.5-4.4,3-6.8l-0.6-0.5c-1.6,2.5-2.7,4.8-3.2,7.1c-2.4,11.6-5.1,22.6-11.2,30.4
			c-3.9,5.1-13.1,8.8-21.2,12.1c-4.8,2-9,3.7-11.5,5.4c-1.2,0.8-2.6,2.1-4.1,3.7l0.6,0.6c1.5-1.6,2.8-2.8,3.9-3.6
			C16.1,60.1,20.4,58.3,24.9,56.5z M46.4,49.2c0.5-0.7,1.1-1.4,1.6-2.1c5.3-7.1,8.8-11.9,10.4-22.4c0.1-0.8,0.3-1.6,0.5-2.4
			l-0.5-1.1c-0.4,1.2-0.6,2.3-0.8,3.3c-1.5,10.4-5,15-10.3,22.1c-0.5,0.7-1,1.4-1.6,2.1c-3.6,4.8-10.6,7.4-17.5,9.9
			c-4.8,1.7-9.3,3.4-12.7,5.8c-1.2,0.8-2.4,1.8-3.7,3.1l0.6,0.6c1.2-1.2,2.4-2.2,3.5-3c3.4-2.3,7.8-3.9,12.6-5.7
			C35.5,56.8,42.7,54.2,46.4,49.2z M58.4,21.1l1.4-3.6C59.2,18.8,58.8,20,58.4,21.1z M50.3,70.3c3.6-1,6.9-1.9,8.3-2.9
			c2.6-1.8,8.2-12.8,9.1-18.5c0.5-3.1,1.2-7.1,2.3-11.2l-0.7-0.6c-1.1,4.3-1.9,8.4-2.4,11.7c-0.9,5.8-6.6,16.4-8.8,17.9
			c-1.3,0.9-4.7,1.9-8.1,2.8c-2.7,0.7-5.4,1.5-7.5,2.3c-2.6,1.1-6.4,4.3-11.1,8.7l1,0.2c4.4-4.1,8-7.2,10.4-8.1
			C44.9,71.8,47.6,71.1,50.3,70.3z M54.2,77.4c-1.2-0.4-3.7,1-6.3,2.9l1.1,0.3c2.3-1.6,4.3-2.7,5-2.4c0.1,0,0.2,0.1,0.2,0.4
			c0.1,0.7,0,1.4-0.1,2.2l0.8-0.2c0.1-0.7,0.1-1.4,0-2C54.9,77.7,54.5,77.4,54.2,77.4z M82.7,41.9c-0.8,2.4-1.6,4.9-2.3,7.5l1.2-1.3
			c0.5-1.7,1-3.3,1.5-4.9v0L82.7,41.9z M36.2,18.3c-4.7,0.3-8,1.9-14.1,6.9c-5.2,4.3-5.8,6.7-7.2,12.6l0,0.1
			c-0.3,1.3-0.3,2.2,0.2,2.8c0.3,0.4,0.8,0.6,1.5,0.6c1.3,0,3.3-0.9,5.1-1.7c1.1-0.5,2.2-1,3.1-1.3c0.4-0.1,0.7-0.2,1-0.3l0,0
			c3.1-0.9,4.3-1.2,10-7.2c3.7-3.8,5.3-8,4.2-10.6C39.4,18.9,38.1,18.2,36.2,18.3z M35.2,30.4c-5.5,5.8-6.6,6.1-9.6,6.9
			c-0.3,0.1-0.6,0.2-1,0.3c-1,0.3-2.1,0.8-3.2,1.3l0,0c-1.8,0.8-3.6,1.6-4.8,1.6c-0.4,0-0.7-0.1-0.8-0.3c-0.2-0.2-0.4-0.8,0-2.1
			l0-0.1c1.4-5.8,1.9-8,6.9-12.1c6-4.9,9.1-6.5,13.7-6.7c0.1,0,0.2,0,0.3,0c1.3,0,2.2,0.6,2.7,1.6C40,22.4,39.4,26,35.2,30.4z
			 M45.9,18.8c0.8-2.1,0.8-3.7,0.1-4.7c-0.6-0.8-1.7-1.3-3.3-1.3c-2.8,0-6.9,1.4-10.5,2.7c-7.5,2.8-11.6,6.9-14.8,10.8
			c-3.6,4.4-7.6,12-8.5,19.1c-0.2,1.8-0.1,2.8,0.4,3.4c0.3,0.3,0.6,0.4,1.1,0.4c1.1,0,2.6-0.9,4.7-2.1c2.4-1.4,5.8-3.3,9.8-4.6l0,0
			C35.3,39.2,42.6,28.1,45.9,18.8z M24.7,41.8c-4.1,1.3-7.5,3.3-9.9,4.7c-2,1.1-3.5,2-4.3,2l0,0c-0.3,0-0.4-0.1-0.4-0.2
			c-0.3-0.3-0.4-1.3-0.2-2.7c0.8-7,4.7-14.4,8.3-18.7c3.2-3.9,7.2-7.8,14.5-10.6c3.5-1.3,7.5-2.7,10.2-2.7c1.3,0,2.1,0.3,2.6,0.9
			c0.5,0.8,0.5,2.1-0.2,3.9C42,27.2,34.8,38.6,24.7,41.8z M22.9,48.2c5.1-2.3,8.8-3.9,12.5-7c5.3-4.4,12.1-12.3,13.9-20
			c0.5-2,0.8-3.7,1-5.1c0.7-3.6,1.1-5.6,2.9-8c0.8-1,1.8-2.6,3-4.3l-0.8-0.3c-1.1,1.7-2.1,3.2-2.8,4.1c-1.9,2.5-2.3,4.6-3,8.3
			c-0.3,1.4-0.6,3.1-1,5.1c-1.6,7-8,14.9-13.6,19.5c-3.6,3-7.3,4.6-12.3,6.9c-2.6,1.2-5.6,2.5-9.2,4.3c-1.8,0.9-3.6,2-5.3,3.1
			l0.1,0.9c1.7-1.2,3.6-2.3,5.5-3.3C17.2,50.7,20.2,49.4,22.9,48.2z M32.4,22.1c-2.5,0-6.3,2.4-8.5,4.8c-0.1,0.2-3.1,3.9-4.3,6.9
			c-0.2,0.6-0.2,1.1,0,1.4c0.2,0.3,0.6,0.5,1.1,0.5c1.1,0,2.8-0.6,4.6-1.3c0.9-0.3,1.8-0.6,2.6-0.9c3.2-0.9,5.8-4.3,7.6-6.4l0,0
			c0.2-0.3,0.5-0.6,0.7-0.8c0.8-0.9,0.7-1.7,0.4-2.3C35.9,22.8,34,22.1,32.4,22.1z M35.4,25.8c-0.2,0.2-0.4,0.5-0.7,0.8
			c-1.7,2.1-4.3,5.3-7.2,6.2c-0.8,0.2-1.7,0.6-2.6,0.9v0c-1.7,0.6-3.4,1.2-4.3,1.2c-0.3,0-0.4-0.1-0.4-0.1c0-0.1-0.1-0.3,0.1-0.7
			c1.1-2.9,4.2-6.7,4.2-6.7c2-2.2,5.7-4.5,7.9-4.5c1.5,0,3,0.7,3.4,1.5C36,24.9,35.9,25.3,35.4,25.8z M15.4,18
			c6.9-7.9,16.7-9,20.9-9.5c1.5-0.2,3.6-1.6,6.7-4.3l-1.4,0.1c-2.1,1.8-4.1,3.3-5.4,3.4c-4.3,0.5-14.3,1.6-21.4,9.7
			c-3.7,4.2-5.8,7.8-7.3,11.7l-0.4,3.5l-1.5,1.9c-0.3,1.2-0.7,2.3-1.1,3.6c-0.2,0.8-0.5,1.6-0.7,2.4c-0.3,1-0.6,1.9-0.8,2.7l0,0
			l0.4,1.5c0.3-1,0.7-2.3,1.2-4c0.2-0.8,0.5-1.6,0.7-2.4C7.7,30.4,9.2,25.1,15.4,18z M38.4,3.5l-1-0.3C34.2,5.4,30,6,25.8,6.5
			l-0.8,0.9l0,0c0.2,0,0.4-0.1,0.6-0.1C30.2,6.7,35,6.1,38.4,3.5z"/>
	</g>
</g>
<g id="XMLID_6_">
	<path class="st2" d="M84.9,41.7l0-0.1l0-0.1l0-0.1l0-0.1l0-0.1c-0.4-1-1.2-1.8-2-2.3c-0.9-0.5-1.8-0.6-2.7-0.6
		c-1.3,0-2.6,0.3-3.6,0.6c-0.5,0.2-0.9,0.3-1.2,0.4c-0.1,0-0.2,0.1-0.3,0.1c-1.4,0-2.8-0.8-3.5-2.2l0,0c-1-1.9-2.8-3.2-4.9-3.6
		c-2-0.3-3.4-2.1-3.4-4l0,0c0-0.1,0-0.3,0.1-0.6c0.1-0.3,0.1-0.6,0.1-0.8c0-1.8-0.7-3.6-1.9-4.8l0,0c-0.8-0.9-1.2-1.8-1.2-2.8
		c0-1,0.4-2,1.2-2.8l0,0c0.1-0.1,0.4-0.4,0.7-0.7c0.4-0.4,1-1.1,1.4-1.9c0.5-0.8,0.8-1.8,0.8-3c0-1-0.3-2.2-0.8-3.3l0,0l0,0l0-0.1
		l0,0c-0.4-1-1-1.9-1.8-2.7c-1.2-1.3-2.7-2.4-4.3-3.3c-1.6-0.8-3.4-1.4-5.1-1.4c-1.8,0-3.6,0.4-5.3,1.2v0c-1.3,0.6-2.7,0.9-4.1,0.9
		c-1.4,0-2.7-0.3-4-0.9c-1.7-0.8-3.5-1.2-5.3-1.2c-4.4,0-8.5,2.4-10.7,6.4l0,0c-1.3,2.5-3.6,4.2-6.5,4.7l0,0c-2.9,0.5-5.4,2-7.2,4.2
		c-1.8,2.1-2.8,4.8-2.8,7.7c0,0.6,0.1,1.1,0.1,1.6c0.1,0.4,0.1,1,0.1,1.3c0,2.4-1,4.7-2.6,6.3C1.9,36,0.8,39,0.8,42v0
		c0,3,1.1,6,3.4,8.4c1.6,1.6,2.6,3.9,2.6,6.3c0,0.3-0.1,0.9-0.1,1.3c-0.1,0.5-0.1,1.1-0.1,1.6c0,2.9,1,5.6,2.8,7.7
		c1.8,2.1,4.3,3.7,7.2,4.2l0,0c2.8,0.5,5.2,2.2,6.5,4.7l0,0c2.2,4,6.3,6.4,10.7,6.4c1.8,0,3.6-0.4,5.3-1.2c1.3-0.6,2.6-0.9,4-0.9
		c1.4,0,2.8,0.3,4.1,0.9v0c1.7,0.8,3.5,1.2,5.3,1.2c4.3,0,8.4-2.4,10.6-6.4c1.4-2.5,3.8-4.2,6.5-4.7c2.9-0.5,5.4-2,7.2-4.1
		c1.7-2.1,2.7-4.8,2.7-7.7c0-0.6-0.1-1.2-0.1-1.5l0-0.2c-0.1-0.5-0.1-0.9-0.1-1.2c0-2.4,0.9-4.7,2.6-6.4c0.8-0.8,1.7-1.7,2.4-2.7
		c0.7-1,1.3-2.3,1.3-3.8C85.2,43.2,85.1,42.5,84.9,41.7L84.9,41.7z M81.6,46c-0.5,0.7-1.2,1.5-2.1,2.3c-2.2,2.3-3.4,5.3-3.4,8.4
		c0,0.6,0.1,1.1,0.1,1.5c0,0.5,0.1,1.1,0.1,1.4c0,2.2-0.8,4.2-2.1,5.8c-1.3,1.6-3.2,2.7-5.4,3.1l0,0c-3.6,0.7-6.8,2.9-8.6,6.2l0,0
		c-1.6,3.1-4.8,4.9-8,4.9c-1.4,0-2.7-0.3-4-0.9l0,0c-1.7-0.8-3.5-1.2-5.3-1.2c-1.8,0-3.6,0.4-5.2,1.2l0,0c-1.3,0.7-2.6,0.9-4,0.9
		c-3.3,0-6.5-1.8-8.1-4.9c-1.7-3.3-4.8-5.5-8.5-6.2l0,0c-2.2-0.4-4.1-1.5-5.4-3.2c-1.3-1.6-2.1-3.7-2.1-5.9c0-0.3,0-0.8,0.1-1.3
		c0.1-0.5,0.1-1.1,0.1-1.7c0-3.2-1.3-6.1-3.4-8.3c-1.8-1.8-2.6-4.1-2.6-6.4c0-2.3,0.8-4.5,2.6-6.4c2.1-2.2,3.4-5.2,3.4-8.3
		c0-0.6-0.1-1.2-0.1-1.7c-0.1-0.4-0.1-0.9-0.1-1.3c0-2.2,0.8-4.2,2.1-5.9c1.3-1.6,3.2-2.8,5.4-3.2l0,0c3.7-0.6,6.8-2.9,8.5-6.2
		c1.7-3.1,4.8-4.9,8.1-4.9c1.4,0,2.7,0.3,4,0.9l0,0c1.6,0.8,3.4,1.2,5.2,1.2c1.8,0,3.6-0.4,5.3-1.2l0,0c1.3-0.7,2.6-0.9,4-0.9
		c1.5,0,3.4,0.7,5,1.8c0.8,0.6,1.6,1.2,2.2,1.9s1.1,1.4,1.3,2l0,0l0,0c0.4,0.9,0.6,1.6,0.6,2.2c0,0.9-0.3,1.5-0.7,2.1
		c-0.2,0.3-0.4,0.6-0.7,0.8c-0.2,0.2-0.5,0.5-0.7,0.7c-1.3,1.3-2,3.1-2,4.8c0,1.8,0.7,3.5,2,4.8l0,0c0.7,0.7,1.1,1.8,1.1,2.8
		c0,0.1,0,0.2,0,0.3l0,0.1l0,0c0,0.1,0,0.2,0,0.3c0,0,0,0.1,0,0.2c0,0.1,0,0.3,0,0.5c0,3.4,2.4,6.3,5.8,6.9c1.2,0.2,2.2,1,2.9,2.1
		l0,0c1.2,2.3,3.6,3.7,6.2,3.7c0.2,0,0.3,0,0.4,0c0.4-0.1,0.6-0.2,1-0.3c0.5-0.2,1.1-0.4,1.8-0.6c0.7-0.2,1.3-0.3,1.9-0.3
		c0.6,0,1,0.1,1.3,0.3c0.3,0.2,0.5,0.4,0.8,0.9c0.1,0.5,0.2,1,0.2,1.4C82.3,44.7,82.1,45.3,81.6,46L81.6,46z"/>
	<path class="st2" d="M21.6,33c0,3.3-4.9,3.3-4.9,0C16.7,29.7,21.6,29.7,21.6,33"/>
	<path class="st2" d="M41.1,64.8c0,3.3-4.9,3.3-4.9,0C36.2,61.5,41.1,61.5,41.1,64.8"/>
	<path class="st2" d="M66.2,55.3c0,3.3-4.9,3.3-4.9,0C61.3,52,66.2,52,66.2,55.3"/>
	<path class="st2" d="M51.8,39.5c0,3.3-4.9,3.3-4.9,0C46.9,36.2,51.8,36.2,51.8,39.5"/>
	<path class="st2" d="M25.1,46.6c-2.4,0-4.4,1.9-4.4,4.4c0,2.4,1.9,4.4,4.4,4.4c2.4,0,4.4-1.9,4.4-4.4
		C29.4,48.5,27.5,46.6,25.1,46.6z"/>
	<path class="st2" d="M37.1,39.7c0,3.3-4.9,3.3-4.9,0C32.2,36.5,37.1,36.5,37.1,39.7"/>
	<path class="st2" d="M41.1,17.5c-2.4,0-4.4,1.9-4.4,4.4c0,2.4,1.9,4.4,4.4,4.4c2.4,0,4.4-1.9,4.4-4.4
		C45.4,19.5,43.5,17.5,41.1,17.5z"/>
	<path class="st2" d="M53.5,57.2c0,5.8-8.7,5.8-8.7,0C44.8,51.4,53.5,51.4,53.5,57.2"/>
</g>
</svg>
